<svg width="21" height="25" viewBox="0 0 21 25" fill="none" xmlns="http://www.w3.org/2000/svg">
<g clip-path="url(#clip0_20_1088)">
<path d="M15.9391 7.78452V20.9736C15.9391 21.3679 15.5805 21.6894 15.1362 21.6894C14.6919 21.6894 14.3332 21.3697 14.3332 20.9736V7.78452H11.3008V20.9736C11.3008 21.3679 10.9422 21.6894 10.4978 21.6894C10.0535 21.6894 9.69491 21.3697 9.69491 20.9736V7.78452H6.66246V20.9736C6.66246 21.3679 6.30382 21.6894 5.85952 21.6894C5.41521 21.6894 5.05658 21.3697 5.05658 20.9736V7.78452H2.1377V23.6129C2.1377 24.3801 2.83504 25.0018 3.69576 25.0018H17.2999C18.1607 25.0018 18.858 24.3801 18.858 23.6129V7.78452H15.9371H15.9391Z" fill="#A3A3A3"/>
<path d="M19.4419 2.89855H16.1824V1.38711C16.1824 0.621625 15.485 0 14.6243 0H6.37372C5.513 0 4.81565 0.621625 4.81565 1.38711V2.89855H1.55806C0.697343 2.89855 0 3.52018 0 4.28566V5.32644C0 6.09371 0.697343 6.71533 1.55806 6.71533H19.4439C20.3046 6.71533 21.002 6.09371 21.002 5.32644V4.28566C21.002 3.52018 20.3046 2.89855 19.4439 2.89855H19.4419Z" fill="#A3A3A3"/>
</g>
<defs>
<clipPath id="clip0_20_1088">
<rect width="21" height="25" fill="white"/>
</clipPath>
</defs>
</svg>
