<?xml version="1.0" encoding="utf-8"?>
<!-- Generator: Adobe Illustrator 27.8.1, SVG Export Plug-In . SVG Version: 6.00 Build 0)  -->
<svg version="1.1" id="Layer_1" xmlns="http://www.w3.org/2000/svg" xmlns:xlink="http://www.w3.org/1999/xlink" x="0px" y="0px"
	 viewBox="0 0 2100 604.2" style="enable-background:new 0 0 2100 604.2;" xml:space="preserve">
<style type="text/css">
	.st0{fill-rule:evenodd;clip-rule:evenodd;fill:#5E5E5E;}
	.st1{fill-rule:evenodd;clip-rule:evenodd;fill:#FDC50C;}
	.st2{fill-rule:evenodd;clip-rule:evenodd;fill:#111111;stroke:#19282F;stroke-width:0.2004;stroke-miterlimit:10;}
	.st3{fill-rule:evenodd;clip-rule:evenodd;fill:#111111;stroke:#19282F;stroke-width:0.4867;stroke-miterlimit:10;}
	.st4{fill:#FFFFFF;}
</style>
<g>
	<path class="st0" d="M165.2,115.2c-25.9,28.8-42.1,51.9-57.3,90.1c-36.6,92.2-19.1,201.5,42.7,278.4c8.4,10.4,17.4,19,26,28.4
		c7.5-78.7,23.4-175.8,42.2-249.8c7.1-28.2,22.9-92.2,39.7-106.2c24.6-20.5,46.3,50.5,63,73.1c13-0.1,42.4-6.4,58.5-8.7
		c9-1.3,11.9-0.2,16.3-6.3c11.9-16.6,41.2-101.1,59-60.9c9.3,21.1,25.4,105.5,29.4,109.9c2.7,1.6-0.4,0.8,4.1,1.3
		c16.4,1.8,73.1-16.8,90.7-3.5c13.9,10.5,2.3,76.8,0.2,98.2c-1.7,16.7-3.6,33-5.5,49.7c-4.8,41.1-11.3,37.2-62.1,51.1
		c-18,4.9-35.2,7.2-43.4,11.4c-0.4,0.2-1,0.5-1.4,0.8l4.5,91.1c20.1-0.8,70.2-42.2,84.4-55.1c24.7-22.6,59.1-78.5,70.1-113.4
		c3.2-10.2,6.9-22,8.6-32.8c4.8-29.3,5.2-51.9,4.1-83.1C624.5,169.4,564.4,96.6,483.6,56.5c-88.2-43.7-197.8-34.4-279.1,24.4
		C190.1,91.2,177.3,101.8,165.2,115.2L165.2,115.2z"/>
	<path class="st1" d="M196.2,527.6c5.6,8.2,38.6,26.9,50.1,32.2c10.2,4.7,19.2,8.5,29.5,11.8c37.9,12.2,37.6,9.9,69.3,13.7
		c28.7,3.4,85.3-2.6,107.9-14l-8.1-118.2c11.5-5.1,96.6-18.8,104.2-28.1c5.1-10,11-77.5,11.5-94.1c-53.3,2.5-44.6-28.2-48-47.2
		l-45.1,5.5c-2.1-15.7-21.8-102.3-27.6-110.4c-19.3,28.7-22.1,57-42.4,60.8c-24.4,4.6-66,12.8-88.7,14c-12.7-22.3-24.7-55-39.7-73.3
		c-1.9,1.7-0.1-1.4-3.4,4l-23.6,74.6c-14.2,57.5-24.2,118-33.2,176.9C204.5,463.9,202.2,501.3,196.2,527.6L196.2,527.6z"/>
	<path class="st2" d="M176.6,512.1c3.9,3.8,5.6,4.6,9.5,8c5.9,5.2,3.4,4.3,10.1,7.5c6.1-26.3,8.4-63.7,12.7-91.7
		c9-58.9,19-119.4,33.2-176.9l23.6-74.6c3.4-5.4,1.5-2.4,3.4-4c15,18.3,27,51,39.7,73.3c22.7-1.1,64.3-9.4,88.7-14
		c20.3-3.9,23.1-32.1,42.4-60.8c5.8,8.2,25.5,94.7,27.6,110.4l45.1-5.5c3.4,19.1-5.3,49.8,48,47.2c-0.5,16.7-6.4,84.1-11.5,94.1
		c-7.6,9.3-92.7,22.9-104.2,28.1l8.1,118.2l18.7-8.2l-4.5-91.1c0.4-0.3,1.1-0.6,1.4-0.8c8.2-4.2,25.4-6.5,43.4-11.4
		c50.8-13.9,57.4-10,62.1-51.1c1.9-16.7,3.8-33,5.5-49.7c2.1-21.3,13.8-87.6-0.2-98.2c-17.6-13.3-74.2,5.3-90.7,3.5
		c-4.6-0.5-1.5,0.3-4.1-1.3c-4-4.4-20.1-88.8-29.4-109.9c-17.7-40.1-47,44.4-59,60.9c-4.4,6.1-7.3,5-16.3,6.3
		c-16.2,2.3-45.5,8.6-58.5,8.7c-16.8-22.6-38.5-93.6-63-73.1c-16.8,14-32.6,78-39.7,106.2C200,336.3,184.1,433.4,176.6,512.1
		L176.6,512.1z"/>
	<path class="st3" d="M402.4,296.2c7.6,0,13.8-6.2,13.8-13.9c0-7.7-6.2-13.9-13.8-13.9c-7.6,0-13.7,6.2-13.7,13.9
		C388.7,289.9,394.9,296.2,402.4,296.2L402.4,296.2z"/>
	<path class="st3" d="M300.7,310.1c7.6,0,13.8-6.2,13.8-13.9c0-7.6-6.2-13.9-13.8-13.9c-7.6,0-13.7,6.2-13.7,13.9
		C287,303.8,293.2,310.1,300.7,310.1L300.7,310.1z"/>
	<g>
		<path class="st4" d="M728.3,395.3V185.9h81c14.1,0,27.1,2.4,39.1,7.1s22.2,11.5,30.7,20.3s15.2,19.6,20,32.2
			c4.8,12.6,7.3,26.9,7.3,42.9s-2.2,30.5-6.5,43.7c-4.3,13.1-10.5,24.4-18.4,33.7c-8,9.4-17.6,16.6-28.7,21.8
			c-11.1,5.2-23.4,7.7-36.9,7.7L728.3,395.3L728.3,395.3z M807.1,359.7c19.1,0,33-5.9,41.6-17.8s12.9-29.7,12.9-53.5
			c0-11.8-1.1-21.9-3.2-30.3c-2.1-8.4-5.5-15.3-10.2-20.7c-4.7-5.4-10.8-9.2-18.1-11.7c-7.4-2.4-16.3-3.6-26.8-3.6h-32.5v137.5
			L807.1,359.7L807.1,359.7z"/>
		<path class="st4" d="M995.4,399.4c-12.6,0-23.9-2-33.7-6c-9.9-4-18.2-9.6-25.1-16.7c-6.8-7.1-12-15.8-15.6-25.9
			s-5.4-21.1-5.4-33.1c0-12.2,1.8-23.3,5.5-33.4s9-18.7,15.9-25.9c6.9-7.1,15.3-12.7,25.1-16.6s20.9-5.8,33.3-5.8
			c12.2,0,23.1,1.9,32.8,5.8c9.7,3.9,17.9,9.4,24.8,16.4c6.8,7,12.1,15.6,15.8,25.7c3.7,10.1,5.5,21.3,5.5,33.7
			c0,12.4-1.8,23.6-5.5,33.6s-8.9,18.6-15.8,25.7c-6.8,7.1-15.1,12.7-24.9,16.6S1007.4,399.4,995.4,399.4z M995.4,365.1
			c25,0,37.5-15.8,37.5-47.3c0-31.3-12.5-47-37.5-47s-37.5,15.7-37.5,47C957.9,349.3,970.4,365.1,995.4,365.1z"/>
		<path class="st4" d="M1195.6,374.5c-2.9,6.9-8.3,12.4-15.9,16.2c-7.7,3.9-16.6,5.8-26.6,5.8c-12.8,0-23.6-2.3-32.3-6.8
			c-8.7-4.5-15.8-10.5-21.1-17.8c-5.4-7.4-9.3-15.9-11.7-25.5c-2.4-9.7-3.6-19.6-3.6-29.6c0-12,1.8-23,5.4-33s8.4-18.5,14.5-25.5
			c6.1-7,13.2-12.5,21.4-16.4c8.2-3.9,17-5.8,26.5-5.8c19.3,0,33.8,7.8,43.5,23.3v-19.2h41v156.7c0,11.8-2,22.1-6,31.1
			c-4,8.9-9.5,16.4-16.4,22.4s-15.1,10.6-24.6,13.7c-9.5,3.2-19.6,4.7-30.3,4.7c-10.7,0-20.7-1.5-30-4.6c-9.3-3-17.2-7.4-23.8-12.9
			c-6.6-5.6-11.8-12.4-15.6-20.3c-3.8-8-5.7-17-5.7-27.1h38.2c0,9.5,3.1,16.8,9.3,21.9c6.2,5.1,14.5,7.7,24.8,7.7
			c10.9,0,20.2-3,27.8-9s11.4-14.1,11.4-24.4v-25.6H1195.6z M1161.9,364.4c10.1,0,18.4-3.8,25.1-11.5c6.6-7.7,9.9-18.1,9.9-31.4
			c0-33.2-11.7-49.8-35-49.8s-35,15.8-35,47.3c0,13.9,3.3,24.9,9.9,33.1C1143.5,360.3,1151.8,364.4,1161.9,364.4z"/>
		<path class="st4" d="M1295.9,307v88.3h-43.8V185.9h149.2v36.6H1296v47.6h92.1V307H1295.9z"/>
		<path class="st4" d="M1410.7,395.3V240.1h38.5v18.6c3.4-5.3,6.9-9.4,10.6-12.3s7.5-5.2,11.4-6.8c3.9-1.6,7.8-2.6,11.8-3
			s8.1-0.6,12.3-0.6h5.4v41.9c-3.8-0.6-7.6-0.9-11.4-0.9c-25,0-37.5,12.5-37.5,37.5v80.7h-41.1V395.3z"/>
		<path class="st4" d="M1539.4,328.5c0.6,11.8,4,21.1,10.2,28.1c6.2,6.9,14.3,10.4,24.4,10.4c6.7,0,12.7-1.5,17.8-4.6
			c5.1-3,8.5-7.3,9.9-12.8h42.3c-4.8,16-13.2,28.3-25.2,36.9s-26.3,12.9-42.9,12.9c-51.7,0-77.6-28.2-77.6-84.5
			c0-12,1.7-22.8,5-32.5c3.4-9.7,8.2-18,14.7-24.9c6.4-6.9,14.2-12.2,23.5-15.9c9.2-3.7,19.9-5.5,31.9-5.5c24,0,42.1,7.7,54.4,23
			s18.4,38.5,18.4,69.4H1539.4z M1604,302.6c-0.2-5.7-1.2-10.7-3-15s-4.2-7.9-7.1-10.7c-2.9-2.8-6.3-4.9-10.1-6.3
			c-3.8-1.4-7.7-2-11.7-2c-8.2,0-15.3,3-21.3,9s-9.4,14.3-10.2,25.1L1604,302.6L1604,302.6z"/>
		<path class="st4" d="M1758.2,395.3v-94c0-12-2-20.1-6-24.3c-4-4.2-10.8-6.3-20.5-6.3c-21.2,0-31.9,11.9-31.9,35.6v88.9h-41V240
			h39.1v22.7c4.8-8.8,11.2-15.5,19.2-20s18.3-6.8,30.9-6.8c7.4,0,14.2,1.1,20.5,3.3c6.3,2.2,11.7,5.5,16.2,9.9s8.1,9.8,10.7,16.2
			c2.6,6.4,3.9,13.8,3.9,22.2V395h-41.1V395.3z"/>
		<path class="st4" d="M1909.3,287.2c-1.1-7.1-3.7-12.3-8-15.6c-4.3-3.3-10.9-4.9-19.7-4.9c-8.4,0-14.8,1-19.1,3
			c-4.3,2-6.5,5.4-6.5,10.2c0,4.2,2.2,7.6,6.5,10.1s10.6,4.9,18.8,7.3c13.5,3.8,24.8,7,34.1,9.6c9.2,2.6,16.7,5.7,22.2,9.3
			c5.6,3.6,9.6,8,12,13.4s3.6,12.6,3.6,21.6c0,13.9-5.8,25.4-17.3,34.5c-11.6,9.1-28.7,13.7-51.4,13.7c-11.1,0-21.2-1.3-30.3-3.8
			c-9-2.5-16.8-6.1-23.2-10.9c-6.4-4.7-11.4-10.4-14.8-17c-3.5-6.6-5.3-14-5.5-22.2h42.3c0,7.4,2.9,13,8.7,17c5.8,4,13.3,6,22.5,6
			c7.8,0,14.5-1.2,20-3.6c5.6-2.4,8.4-6.1,8.4-11.2c0-5.7-2-9.8-6.1-12.3s-10.4-4.7-18.8-6.6c-15.1-3.4-27.3-6.9-36.6-10.6
			c-9.3-3.7-16.5-7.7-21.6-12.1c-5.2-4.4-8.6-9.2-10.4-14.5s-2.7-11.1-2.7-17.7c0-5.9,1.2-11.5,3.6-16.7c2.4-5.3,6.3-9.9,11.5-13.9
			c5.3-4,12.1-7.2,20.5-9.6s18.7-3.6,30.9-3.6c22.3,0,38.6,4.5,48.9,13.6c10.3,9,16,21.6,17,37.5L1909.3,287.2L1909.3,287.2z"/>
	</g>
</g>
</svg>
