<svg width="17" height="25" viewBox="0 0 17 25" fill="none" xmlns="http://www.w3.org/2000/svg">
<g clip-path="url(#clip0_20_1027)">
<path d="M16.979 4.70887C16.936 4.55144 16.8305 4.41352 16.687 4.33202L15.5088 3.65844L15.6685 3.38399L15.6649 3.3819C16.177 2.46173 15.9548 1.35836 15.1535 0.900707L13.9267 0.199258C13.1248 -0.25839 12.0486 0.102434 11.5013 1.00171L11.4978 1.00032L6.08691 10.2801L10.2569 12.6644L14.8799 4.73464L15.5158 5.09825L11.9029 11.2957C11.7299 11.5917 11.8326 11.972 12.1323 12.1427C12.4333 12.3147 12.8167 12.213 12.9891 11.9163L16.9164 5.18045C16.9987 5.03905 17.0212 4.86769 16.9783 4.70957L16.979 4.70887Z" fill="#A3A3A3"/>
<path d="M0.64001 19.6232H0.639307L0.374814 22.8323L0.672369 23.0023L0.0906248 23.9998C-0.0957864 24.3195 0.0146535 24.727 0.336828 24.9109C0.659003 25.0955 1.06981 24.9861 1.25622 24.6671L1.83797 23.6689L2.13482 23.8396L4.80929 22.0097V22.0083L9.5575 13.8661L5.38681 11.4817L0.64001 19.6232Z" fill="#A3A3A3"/>
</g>
<defs>
<clipPath id="clip0_20_1027">
<rect width="17" height="25" fill="white"/>
</clipPath>
</defs>
</svg>
