<?xml version="1.0" encoding="UTF-8"?>
<svg id="Layer_1" data-name="Layer 1" xmlns="http://www.w3.org/2000/svg" viewBox="0 0 662.17 604.17">
  <defs>
    <style>
      .cls-1 {
        fill: #ddd4cc;
      }

      .cls-1, .cls-2 {
        stroke-width: 0px;
      }

      .cls-2 {
        fill: #141414;
      }
    </style>
  </defs>
  <rect class="cls-1" x="67.1" y="41.09" width="527.97" height="527.97" rx="263.98" ry="263.98"/>
  <g>
    <path class="cls-2" d="m446.45,478.36h-230.72c-31.94,0-57.92-25.98-57.92-57.92v-230.72c0-31.94,25.98-57.92,57.92-57.92h230.72c31.94,0,57.92,25.98,57.92,57.92v230.72c0,31.94-25.98,57.92-57.92,57.92ZM215.72,150.76c-21.48,0-38.96,17.48-38.96,38.96v230.72c0,21.48,17.48,38.96,38.96,38.96h230.72c21.48,0,38.96-17.48,38.96-38.96v-230.72c0-21.48-17.48-38.96-38.96-38.96h-230.72Z"/>
    <path class="cls-2" d="m331.09,394c-23.75,0-46.08-9.25-62.88-26.04-16.79-16.79-26.04-39.12-26.04-62.88s9.25-46.08,26.04-62.88c16.79-16.79,39.12-26.04,62.88-26.04s46.08,9.25,62.88,26.04c16.79,16.79,26.04,39.12,26.04,62.88s-9.25,46.08-26.04,62.88c-16.79,16.79-39.12,26.04-62.88,26.04Zm0-158.88c-38.58,0-69.96,31.38-69.96,69.96s31.38,69.96,69.96,69.96,69.96-31.38,69.96-69.96-31.38-69.96-69.96-69.96Z"/>
    <path class="cls-2" d="m458.49,179.95c0,9.42-7.64,17.06-17.06,17.06s-17.06-7.64-17.06-17.06,7.64-17.06,17.06-17.06,17.06,7.64,17.06,17.06Z"/>
  </g>
</svg>